<?xml version="1.0" encoding="UTF-8"?>
<svg version="1.1" xmlns="http://www.w3.org/2000/svg" width="321" height="277">
<path d="M0 0 C105.93 0 211.86 0 321 0 C321 91.41 321 182.82 321 277 C215.07 277 109.14 277 0 277 C0 185.59 0 94.18 0 0 Z " fill="#0F0031" transform="translate(0,0)"/>
<path d="M0 0 C1.17175781 0.01353516 1.17175781 0.01353516 2.3671875 0.02734375 C2.94726562 0.03894531 3.52734375 0.05054687 4.125 0.0625 C1.59401623 2.26335545 -0.93155392 3.5525363 -4 4.8125 C-9.38194701 7.11904872 -17.16626289 10.64502578 -19.875 16.0625 C-13.48799121 16.14811953 -7.10355219 16.16277926 -0.71606445 16.12963867 C1.4535688 16.12656897 3.62328771 16.13935122 5.79272461 16.16870117 C18.01125579 16.88160628 18.01125579 16.88160628 29.1159668 13.02075195 C30.4863448 11.41957345 31.8101355 9.7768728 33.07495117 8.09106445 C36.61146789 4.5916102 40.65275517 5.04228786 45.41601562 5.01367188 C47.22102539 5.0687793 47.22102539 5.0687793 49.0625 5.125 C51.48823467 5.14406025 53.9140375 5.15615107 56.33984375 5.16015625 C57.40323975 5.18601807 58.46663574 5.21187988 59.56225586 5.23852539 C62.29256255 5.33293098 62.29256255 5.33293098 64.125 3.0625 C66.625 2.8125 66.625 2.8125 69.125 3.0625 C71.125 5.0625 71.125 5.0625 71.375 7.5625 C71.125 10.0625 71.125 10.0625 69.125 12.0625 C66.5 12.1875 66.5 12.1875 64.125 12.0625 C63.795 11.4025 63.465 10.7425 63.125 10.0625 C50.255 9.5675 50.255 9.5675 37.125 9.0625 C37.125 10.0525 37.125 11.0425 37.125 12.0625 C37.70958984 12.29791504 38.29417969 12.53333008 38.89648438 12.77587891 C41.59969118 14.33656031 42.86279236 16.19647619 44.78125 18.6484375 C48.98340114 22.94530926 52.54530815 23.8978674 58.40625 23.9765625 C61.48463578 23.9581515 64.55025518 23.82999129 67.625 23.6875 C69.21345283 23.65086833 70.80200436 23.61828202 72.390625 23.58984375 C79.24006081 24.0007684 79.24006081 24.0007684 85.125 22.0625 C88.125 21.9375 88.125 21.9375 91.125 22.0625 C92.125 23.0625 92.125 23.0625 92.1875 26.625 C92.166875 27.759375 92.14625 28.89375 92.125 30.0625 C90.12545254 30.10504356 88.12458364 30.10330783 86.125 30.0625 C85.795 29.7325 85.465 29.4025 85.125 29.0625 C82.61238948 29.06326394 80.11952962 29.11981813 77.609375 29.203125 C48.86244979 29.76054303 48.86244979 29.76054303 41.94628906 23.44238281 C36.125 16.70936917 36.125 16.70936917 36.125 13.0625 C32.44457801 15.02589621 32.44457801 15.02589621 29.78317261 18.1446991 C28.125 20.0625 28.125 20.0625 25.74783325 20.53437805 C24.81027191 20.52214706 23.87271057 20.50991608 22.90673828 20.49731445 C21.30960495 20.49300163 21.30960495 20.49300163 19.6802063 20.48860168 C18.53019135 20.46787094 17.38017639 20.4471402 16.1953125 20.42578125 C13.766927 20.42564682 11.33854134 20.42632302 8.91015625 20.42773438 C5.07604314 20.4068407 1.24256365 20.37490689 -2.59130859 20.3269043 C-6.28801487 20.28814429 -9.98283222 20.29202689 -13.6796875 20.30078125 C-15.39863724 20.2605761 -15.39863724 20.2605761 -17.15231323 20.21955872 C-22.82913895 20.09301436 -22.82913895 20.09301436 -27.69586182 22.56430054 C-33.59685703 30.59147704 -33.167891 39.16297397 -33.875 49.0625 C-17.705 49.0625 -1.535 49.0625 15.125 49.0625 C15.125 48.0725 15.125 47.0825 15.125 46.0625 C17.12454746 46.01995644 19.12541636 46.02169217 21.125 46.0625 C22.125 47.0625 22.125 47.0625 22.25 50.0625 C22.125 53.0625 22.125 53.0625 21.125 54.0625 C18.6875 54.25 18.6875 54.25 16.125 54.0625 C15.465 53.4025 14.805 52.7425 14.125 52.0625 C10.74039444 51.50805361 8.28718554 51.27938545 5.35253906 53.25683594 C3.55261158 54.90958026 1.8959241 56.6315555 0.25 58.4375 C-0.33007812 59.04078125 -0.91015625 59.6440625 -1.5078125 60.265625 C-4.55395599 63.40226046 -4.55395599 63.40226046 -6.875 67.0625 C-15.785 67.0625 -24.695 67.0625 -33.875 67.0625 C-34.205 69.7025 -34.535 72.3425 -34.875 75.0625 C-36.57058084 79.48852323 -39.44511592 82.84698367 -42.875 86.0625 C-45.68802927 89.28921004 -47.37091039 92.075997 -48.875 96.0625 C-47.73023193 96.05089844 -46.58546387 96.03929688 -45.40600586 96.02734375 C-41.13576965 95.99467401 -36.867092 96.0147429 -32.59692383 96.05029297 C-30.75318117 96.05837601 -28.90931859 96.05238527 -27.06567383 96.03173828 C-11.64789713 95.87352183 -11.64789713 95.87352183 -7.17236328 98.875 C-5.31640625 101.0625 -5.31640625 101.0625 -3.99829102 103.25 C-2.93451533 105.39810386 -2.93451533 105.39810386 0.125 106.0625 C0.5271875 105.1653125 0.5271875 105.1653125 0.9375 104.25 C2.19176913 101.93950424 3.03527158 100.65506496 5.125 99.0625 C7.85920715 98.75798035 7.85920715 98.75798035 11.21020508 98.85229492 C12.46613968 98.87768845 13.72207428 98.90308197 15.0160675 98.929245 C15.68792902 98.94864325 16.35979053 98.9680415 17.05201149 98.98802757 C19.89753897 99.06273971 22.74267603 99.08357448 25.58900738 99.10776997 C30.88174832 99.15347318 36.17203432 99.22019194 41.46264648 99.38110352 C59.16313656 100.71306373 59.16313656 100.71306373 75.03173828 94.90966797 C77.51418034 92.53352331 79.46827979 90.02023092 81.42358398 87.20532227 C82.93157078 85.11213018 83.70685353 84.2110698 86.15744019 83.34036255 C89.5738361 82.79407894 92.67512669 82.82619873 96.140625 82.984375 C97.12546875 83.01015625 98.1103125 83.0359375 99.125 83.0625 C99.785 82.4025 100.445 81.7425 101.125 81.0625 C103.625 80.8125 103.625 80.8125 106.125 81.0625 C108.125 83.0625 108.125 83.0625 108.375 85.5625 C108.125 88.0625 108.125 88.0625 106.125 90.0625 C103.625 90.3125 103.625 90.3125 101.125 90.0625 C100.465 89.4025 99.805 88.7425 99.125 88.0625 C94.5627195 86.90985122 90.68692208 86.91597239 86.125 88.0625 C80.81227251 91.62701635 74.98879847 97.33490307 72.125 103.0625 C71.32923553 103.04393951 70.53347107 103.02537903 69.71359253 103.0062561 C62.1532044 102.84262767 54.59639903 102.748202 47.03437614 102.72828102 C43.14769553 102.71568666 39.2649155 102.67789822 35.37939453 102.57910156 C17.34798299 101.3133086 17.34798299 101.3133086 1.17602539 107.22631836 C-1.3049341 109.59762474 -3.24809238 112.10278075 -5.19165039 114.92016602 C-6.69370561 117.02222633 -7.4658433 117.91540118 -9.91737366 118.79676819 C-14.27563245 119.52075669 -18.46841217 119.33083079 -22.875 119.0625 C-23.205 119.3925 -23.535 119.7225 -23.875 120.0625 C-26.875 120.1875 -26.875 120.1875 -29.875 120.0625 C-30.875 119.0625 -30.875 119.0625 -31 116.0625 C-30.875 113.0625 -30.875 113.0625 -29.875 112.0625 C-26.9375 111.875 -26.9375 111.875 -23.875 112.0625 C-22.885 113.0525 -22.885 113.0525 -21.875 114.0625 C-18.75303664 114.52736718 -18.75303664 114.52736718 -15.25 114.6875 C-14.06148437 114.76226562 -12.87296875 114.83703125 -11.6484375 114.9140625 C-10.27558594 114.98753906 -10.27558594 114.98753906 -8.875 115.0625 C-7.46308652 112.42692818 -6.28410465 110.03897343 -5.875 107.0625 C-7.31788305 104.42829406 -9.38400748 102.70429964 -11.875 101.0625 C-14.71360418 100.24284824 -17.39459495 100.2224539 -20.3359375 100.2578125 C-21.12650543 100.24410614 -21.91707336 100.23039978 -22.7315979 100.21627808 C-25.2383177 100.17910773 -27.74304472 100.18268356 -30.25 100.1875 C-31.95706204 100.16936388 -33.66409793 100.14855831 -35.37109375 100.125 C-39.53939447 100.07327154 -43.70639601 100.05806059 -47.875 100.0625 C-46.72959775 101.37537621 -45.58366567 102.68779021 -44.4375 104 C-43.48037109 105.09634766 -43.48037109 105.09634766 -42.50390625 106.21484375 C-41.64958541 107.18389353 -40.78848825 108.14901175 -39.875 109.0625 C-39.29897663 113.90109635 -40.43313316 116.4316605 -42.91796875 120.3828125 C-44.14781525 122.5413186 -44.57779508 124.61055942 -44.875 127.0625 C-43.9778125 127.43375 -43.9778125 127.43375 -43.0625 127.8125 C-40.58852479 129.22620012 -39.44129745 130.71305383 -37.875 133.0625 C-38.37 133.64 -38.865 134.2175 -39.375 134.8125 C-41.24480013 137.16650629 -41.24480013 137.16650629 -40.875 141.0625 C-39.65683594 141.93261719 -39.65683594 141.93261719 -38.4140625 142.8203125 C-35.875 145.0625 -35.875 145.0625 -35.2734375 148.7421875 C-35.24172257 150.14028715 -35.23460505 151.53912542 -35.25 152.9375 C-35.25 158.32427074 -34.84456157 162.40600439 -31.875 167.0625 C-24.1798246 171.87198463 -15.4744421 170.31332794 -6.875 169.0625 C1.59331913 168.31070617 7.67252199 170.02178331 14.6875 174.8125 C15.3990625 175.43125 15.3990625 175.43125 16.125 176.0625 C20.18928186 174.51251777 22.03135393 171.8094045 24.74609375 168.50390625 C28.61006552 164.30270903 31.76527468 162.40057608 37.49380493 161.91049194 C41.40132914 161.79001303 45.28154949 161.86148545 49.1875 162 C51.58963358 162.03585274 53.99130315 162.05634767 56.3936615 162.06947327 C57.87743512 162.08280892 59.36117207 162.11217153 60.84425354 162.15940857 C62.60431245 162.20078519 64.36617101 162.14021723 66.125 162.0625 C66.785 161.4025 67.445 160.7425 68.125 160.0625 C72.68055556 160.61805556 72.68055556 160.61805556 74.125 162.0625 C74.25 165.0625 74.25 165.0625 74.125 168.0625 C73.125 169.0625 73.125 169.0625 70.625 169.1875 C68.125 169.0625 68.125 169.0625 67.125 168.0625 C64.65077762 167.96154243 62.20509997 167.92278773 59.73046875 167.9296875 C58.98670486 167.92873077 58.24294098 167.92777405 57.47663879 167.92678833 C55.89873165 167.92610637 54.32082171 167.92796177 52.74291992 167.93212891 C50.3331058 167.93745446 47.92347999 167.93219622 45.51367188 167.92578125 C43.98177042 167.92644247 42.44986909 167.92772455 40.91796875 167.9296875 C39.8380793 167.92665115 39.8380793 167.92665115 38.7363739 167.92355347 C33.83579368 167.89991314 33.83579368 167.89991314 29.125 169.0625 C28.44013275 170.38657669 27.77629797 171.72159241 27.125 173.0625 C26.279375 173.701875 25.43375 174.34125 24.5625 175 C21.94381872 176.84462737 21.94381872 176.84462737 21.3125 179.625 C21.08665175 182.15357709 21.08665175 182.15357709 21.125 185.0625 C29.375 185.0625 37.625 185.0625 46.125 185.0625 C46.455 183.7425 46.785 182.4225 47.125 181.0625 C51.875 181.9375 51.875 181.9375 54.125 183.0625 C54.25 185.4375 54.25 185.4375 54.125 188.0625 C52.125 190.0625 52.125 190.0625 49.5625 190.25 C47.125 190.0625 47.125 190.0625 46.125 189.0625 C44.49243242 188.90535346 42.85364662 188.81164586 41.21484375 188.74609375 C40.22548828 188.70419922 39.23613281 188.66230469 38.21679688 188.61914062 C37.17587891 188.57982422 36.13496094 188.54050781 35.0625 188.5 C33.49532227 188.43522461 33.49532227 188.43522461 31.89648438 188.36914062 C29.30616028 188.26268895 26.71559825 188.16205692 24.125 188.0625 C24.125 191.3625 24.125 194.6625 24.125 198.0625 C6.45454707 203.59068639 -10.78697391 201.75675671 -27.17529297 193.39086914 C-33.22078557 190.10740079 -38.06903248 185.97586345 -42.875 181.0625 C-43.80505859 180.20205078 -43.80505859 180.20205078 -44.75390625 179.32421875 C-52.22860371 172.317735 -58.61152981 163.38884103 -62.875 154.0625 C-62.875 153.4025 -62.875 152.7425 -62.875 152.0625 C-63.535 152.0625 -64.195 152.0625 -64.875 152.0625 C-65.03355469 151.47984375 -65.19210938 150.8971875 -65.35546875 150.296875 C-67.02667312 144.42457678 -69.13111987 138.95345542 -71.69140625 133.41015625 C-75.13193456 123.67902502 -75.21913988 113.81907732 -75.19067383 103.62084961 C-75.18751919 101.26433753 -75.2110332 98.90909182 -75.23632812 96.55273438 C-75.29056979 83.82471853 -73.22111105 72.07965003 -69.125 60 C-68.86968506 59.24468994 -68.61437012 58.48937988 -68.35131836 57.71118164 C-64.61090313 47.04574516 -59.2479871 37.65149124 -51.875 29.0625 C-50.84052734 27.82886719 -50.84052734 27.82886719 -49.78515625 26.5703125 C-41.20845234 16.65208548 -31.28380639 8.36502863 -18.875 3.875 C-18.18921875 3.61525391 -17.5034375 3.35550781 -16.796875 3.08789062 C-11.22115298 1.02891694 -5.97791815 -0.09057452 0 0 Z " fill="#0DAAFB" transform="translate(134.875,30.9375)"/>
<path d="M0 0 C4 2 4 2 4.8125 4.3125 C5.00677312 7.09708143 4.69268554 9.30622291 4 12 C4.81210938 12.49757812 5.62421875 12.99515625 6.4609375 13.5078125 C9.33618568 16.32997917 9.55885823 17.79714085 9.6484375 21.74609375 C9.64070313 22.44863281 9.63296875 23.15117187 9.625 23.875 C9.625 29.26177074 10.03043843 33.34350439 13 38 C20.6951754 42.80948463 29.4005579 41.25082794 38 40 C46.46831913 39.24820617 52.54752199 40.95928331 59.5625 45.75 C60.036875 46.1625 60.51125 46.575 61 47 C65.06428186 45.45001777 66.90635393 42.7469045 69.62109375 39.44140625 C73.48506552 35.24020903 76.64027468 33.33807608 82.36880493 32.84799194 C86.27632914 32.72751303 90.15654949 32.79898545 94.0625 32.9375 C96.46463358 32.97335274 98.86630315 32.99384767 101.2686615 33.00697327 C102.75243512 33.02030892 104.23617207 33.04967153 105.71925354 33.09690857 C107.47931245 33.13828519 109.24117101 33.07771723 111 33 C111.99 32.01 111.99 32.01 113 31 C117.55555556 31.55555556 117.55555556 31.55555556 119 33 C119.125 36 119.125 36 119 39 C118 40 118 40 115.5 40.125 C113 40 113 40 112 39 C109.52577762 38.89904243 107.08009997 38.86028773 104.60546875 38.8671875 C103.86170486 38.86623077 103.11794098 38.86527405 102.35163879 38.86428833 C100.77373165 38.86360637 99.19582171 38.86546177 97.61791992 38.86962891 C95.2081058 38.87495446 92.79847999 38.86969622 90.38867188 38.86328125 C88.85677042 38.86394247 87.32486909 38.86522455 85.79296875 38.8671875 C84.7130793 38.86415115 84.7130793 38.86415115 83.6113739 38.86105347 C78.71079368 38.83741314 78.71079368 38.83741314 74 40 C73.31513275 41.32407669 72.65129797 42.65909241 72 44 C71.154375 44.639375 70.30875 45.27875 69.4375 45.9375 C66.81881872 47.78212737 66.81881872 47.78212737 66.1875 50.5625 C65.96165175 53.09107709 65.96165175 53.09107709 66 56 C74.25 56 82.5 56 91 56 C91.33 54.68 91.66 53.36 92 52 C96.75 52.875 96.75 52.875 99 54 C99.125 56.375 99.125 56.375 99 59 C97 61 97 61 94.4375 61.1875 C92 61 92 61 91 60 C89.36743242 59.84285346 87.72864662 59.74914586 86.08984375 59.68359375 C85.10048828 59.64169922 84.11113281 59.59980469 83.09179688 59.55664062 C81.53041992 59.49766602 81.53041992 59.49766602 79.9375 59.4375 C78.37032227 59.37272461 78.37032227 59.37272461 76.77148438 59.30664062 C74.18116028 59.20018895 71.59059825 59.09955692 69 59 C69 62.3 69 65.6 69 69 C51.32954707 74.52818639 34.08802609 72.69425671 17.69970703 64.32836914 C11.65421443 61.04490079 6.80596752 56.91336345 2 52 C1.37996094 51.42636719 0.75992188 50.85273438 0.12109375 50.26171875 C-9.28879717 41.44126172 -14.95459711 31.13620866 -19 19 C-12.73 12.73 -6.46 6.46 0 0 Z " fill="#960BF7" transform="translate(90,160)"/>
<path d="M0 0 C0.33 0 0.66 0 1 0 C0.99476318 0.76852295 0.98952637 1.5370459 0.98413086 2.32885742 C0.89036944 18.25761692 1.0267434 34.0976824 2 50 C6.17917653 49.48817777 8.10710028 47.23850155 10.984375 44.30859375 C11.67506073 43.61154076 11.67506073 43.61154076 12.37969971 42.90040588 C13.84367811 41.41968181 15.29686041 39.92885481 16.75 38.4375 C17.74279449 37.42965336 18.7362767 36.42248367 19.73046875 35.41601562 C22.16166473 32.95180539 24.58328868 30.47842671 27 28 C26.34 27.01 25.68 26.02 25 25 C25.33 24.01 25.66 23.02 26 22 C26.49371094 22.56589844 26.98742187 23.13179687 27.49609375 23.71484375 C28.13675781 24.44832031 28.77742188 25.18179688 29.4375 25.9375 C30.07558594 26.66839844 30.71367188 27.39929688 31.37109375 28.15234375 C32.22541459 29.12139353 33.08651175 30.08651175 34 31 C34.57602337 35.83859635 33.44186684 38.3691605 30.95703125 42.3203125 C29.72718475 44.4788186 29.29720492 46.54805942 29 49 C29.598125 49.2475 30.19625 49.495 30.8125 49.75 C33.28647521 51.16370012 34.43370255 52.65055383 36 55 C35.01 55.495 35.01 55.495 34 56 C33.01 54.68 32.02 53.36 31 52 C27.7413364 53.4264578 25.5975146 55.16704162 23.109375 57.6953125 C22.04589844 58.76845703 22.04589844 58.76845703 20.9609375 59.86328125 C19.86652344 60.98283203 19.86652344 60.98283203 18.75 62.125 C18.00492188 62.87910156 17.25984375 63.63320312 16.4921875 64.41015625 C14.6568658 66.26900772 12.8263809 68.13237005 11 70 C11.30035156 70.62648438 11.60070312 71.25296875 11.91015625 71.8984375 C12.29042969 72.71570313 12.67070313 73.53296875 13.0625 74.375 C13.44535156 75.18710938 13.82820313 75.99921875 14.22265625 76.8359375 C14.47917969 77.55007812 14.73570313 78.26421875 15 79 C14.505 79.99 14.505 79.99 14 81 C11 76.25 11 76.25 11 74 C10.34 74 9.68 74 9 74 C8.84144531 73.41734375 8.68289062 72.8346875 8.51953125 72.234375 C6.84832688 66.36207678 4.74388013 60.89095542 2.18359375 55.34765625 C-1.32368684 45.42772402 -1.28661864 35.45147823 -1.20581055 25.06396484 C-1.18737947 22.60894519 -1.18530269 20.15430092 -1.18554688 17.69921875 C-1.18063624 16.12499675 -1.17480992 14.55077729 -1.16796875 12.9765625 C-1.16685593 12.24942047 -1.1657431 11.52227844 -1.16459656 10.77310181 C-1.13001749 7.06110553 -0.88295895 3.61022318 0 0 Z " fill="#4A45F0" transform="translate(61,109)"/>
<path d="M0 0 C2.5 0.25 2.5 0.25 4.5 2.25 C4.75 4.75 4.75 4.75 4.5 7.25 C2.5 9.25 2.5 9.25 0 9.5 C-2.5 9.25 -2.5 9.25 -4.5 7.25 C-9.0622805 6.09735122 -12.93807792 6.10347239 -17.5 7.25 C-22.81272749 10.81451635 -28.63620153 16.52240307 -31.5 22.25 C-32.29576447 22.23143951 -33.09152893 22.21287903 -33.91140747 22.1937561 C-41.4717956 22.03012767 -49.02860097 21.935702 -56.59062386 21.91578102 C-60.47730447 21.90318666 -64.3600845 21.86539822 -68.24560547 21.76660156 C-86.27701701 20.5008086 -86.27701701 20.5008086 -102.44897461 26.41381836 C-104.9299341 28.78512474 -106.87309238 31.29028075 -108.81665039 34.10766602 C-110.31870561 36.20972633 -111.0908433 37.10290118 -113.54237366 37.98426819 C-117.90063245 38.70825669 -122.09341217 38.51833079 -126.5 38.25 C-126.83 38.58 -127.16 38.91 -127.5 39.25 C-130.5 39.375 -130.5 39.375 -133.5 39.25 C-134.5 38.25 -134.5 38.25 -134.625 35.25 C-134.5 32.25 -134.5 32.25 -133.5 31.25 C-130.5625 31.0625 -130.5625 31.0625 -127.5 31.25 C-126.84 31.91 -126.18 32.57 -125.5 33.25 C-122.37803664 33.71486718 -122.37803664 33.71486718 -118.875 33.875 C-117.68648437 33.94976562 -116.49796875 34.02453125 -115.2734375 34.1015625 C-114.35820313 34.15054688 -113.44296875 34.19953125 -112.5 34.25 C-111.08741766 31.61317964 -109.92810424 29.22416073 -109.5 26.25 C-112.06048173 22.52317784 -113.68695572 20.64141486 -118.15527344 19.67675781 C-121.24144166 19.43560322 -124.27960885 19.36737588 -127.375 19.375 C-128.44492188 19.354375 -129.51484375 19.33375 -130.6171875 19.3125 C-133.24557349 19.26556454 -135.87128216 19.24554347 -138.5 19.25 C-138.5 18.59 -138.5 17.93 -138.5 17.25 C-144.44 17.25 -150.38 17.25 -156.5 17.25 C-156.5 16.26 -156.5 15.27 -156.5 14.25 C-154 12.5625 -154 12.5625 -151.5 11.25 C-151.83 12.57 -152.16 13.89 -152.5 15.25 C-151.35523193 15.23839844 -150.21046387 15.22679688 -149.03100586 15.21484375 C-144.76076965 15.18217401 -140.492092 15.2022429 -136.22192383 15.23779297 C-134.37818117 15.24587601 -132.53431859 15.23988527 -130.69067383 15.21923828 C-115.27289713 15.06102183 -115.27289713 15.06102183 -110.79736328 18.0625 C-108.94140625 20.25 -108.94140625 20.25 -107.62329102 22.4375 C-106.55951533 24.58560386 -106.55951533 24.58560386 -103.5 25.25 C-103.231875 24.651875 -102.96375 24.05375 -102.6875 23.4375 C-101.43323087 21.12700424 -100.58972842 19.84256496 -98.5 18.25 C-95.76579285 17.94548035 -95.76579285 17.94548035 -92.41479492 18.03979492 C-91.15886032 18.06518845 -89.90292572 18.09058197 -88.6089325 18.116745 C-87.60114022 18.14584237 -87.60114022 18.14584237 -86.57298851 18.17552757 C-83.72746103 18.25023971 -80.88232397 18.27107448 -78.03599262 18.29526997 C-72.74325168 18.34097318 -67.45296568 18.40769194 -62.16235352 18.56860352 C-44.46186344 19.90056373 -44.46186344 19.90056373 -28.59326172 14.09716797 C-26.11081966 11.72102331 -24.15672021 9.20773092 -22.20141602 6.39282227 C-20.69342922 4.29963018 -19.91814647 3.3985698 -17.46755981 2.52786255 C-14.0511639 1.98157894 -10.94987331 2.01369873 -7.484375 2.171875 C-6.49953125 2.19765625 -5.5146875 2.2234375 -4.5 2.25 C-2.5 0.25 -2.5 0.25 0 0 Z " fill="#551AC2" transform="translate(238.5,111.75)"/>
<path d="M0 0 C2.5 0.25 2.5 0.25 4.5 2.25 C4.75 4.75 4.75 4.75 4.5 7.25 C2.5 9.25 2.5 9.25 -0.125 9.375 C-0.90875 9.33375 -1.6925 9.2925 -2.5 9.25 C-2.995 8.26 -2.995 8.26 -3.5 7.25 C-16.37 6.755 -16.37 6.755 -29.5 6.25 C-29.5 7.24 -29.5 8.23 -29.5 9.25 C-28.62311523 9.60312256 -28.62311523 9.60312256 -27.72851562 9.96337891 C-25.02530882 11.52406031 -23.76220764 13.38397619 -21.84375 15.8359375 C-17.64159886 20.13280926 -14.07969185 21.0853674 -8.21875 21.1640625 C-5.14036422 21.1456515 -2.07474482 21.01749129 1 20.875 C2.58845283 20.83836833 4.17700436 20.80578202 5.765625 20.77734375 C12.61506081 21.1882684 12.61506081 21.1882684 18.5 19.25 C21.5 19.125 21.5 19.125 24.5 19.25 C25.5 20.25 25.5 20.25 25.5625 23.8125 C25.541875 24.946875 25.52125 26.08125 25.5 27.25 C23.50045254 27.29254356 21.49958364 27.29080783 19.5 27.25 C19.17 26.92 18.84 26.59 18.5 26.25 C15.98738948 26.25076394 13.49452962 26.30731813 10.984375 26.390625 C-17.76255021 26.94804303 -17.76255021 26.94804303 -24.67871094 20.62988281 C-30.5 13.89686917 -30.5 13.89686917 -30.5 10.25 C-34.17956671 12.21164412 -34.17956671 12.21164412 -36.83686829 15.33099365 C-38.5 17.25 -38.5 17.25 -40.91081238 17.73101807 C-41.86345474 17.72213562 -42.81609711 17.71325317 -43.79760742 17.70410156 C-44.87850143 17.70379944 -45.95939545 17.70349731 -47.07304382 17.70318604 C-48.82159416 17.67221832 -48.82159416 17.67221832 -50.60546875 17.640625 C-51.79981033 17.63496521 -52.99415192 17.62930542 -54.22468567 17.62347412 C-58.04602847 17.60105175 -61.86643975 17.55084195 -65.6875 17.5 C-68.2753771 17.4799427 -70.86326887 17.4616906 -73.45117188 17.4453125 C-79.80110004 17.40116763 -86.15048348 17.33419628 -92.5 17.25 C-92.5 16.92 -92.5 16.59 -92.5 16.25 C-67.255 15.755 -67.255 15.755 -41.5 15.25 C-57.01 14.92 -72.52 14.59 -88.5 14.25 C-88.17 13.26 -87.84 12.27 -87.5 11.25 C-87.17 11.91 -86.84 12.57 -86.5 13.25 C-80.11299121 13.33561953 -73.72855219 13.35027926 -67.34106445 13.31713867 C-65.1714312 13.31406897 -63.00171229 13.32685122 -60.83227539 13.35620117 C-48.61374421 14.06910628 -48.61374421 14.06910628 -37.5090332 10.20825195 C-36.1386552 8.60707345 -34.8148645 6.9643728 -33.55004883 5.27856445 C-30.01353211 1.7791102 -25.97224483 2.22978786 -21.20898438 2.20117188 C-19.40397461 2.2562793 -19.40397461 2.2562793 -17.5625 2.3125 C-15.13676533 2.33156025 -12.7109625 2.34365107 -10.28515625 2.34765625 C-9.22176025 2.37351807 -8.15836426 2.39937988 -7.06274414 2.42602539 C-3.72498207 2.19676689 -3.30509789 0.33050979 0 0 Z " fill="#1D65C5" transform="translate(201.5,33.75)"/>
<path d="M0 0 C4.875 0.875 4.875 0.875 6 2 C6.125 5 6.125 5 6 8 C5 9 5 9 2 9.125 C-1 9 -1 9 -2 8 C-7.99001852 7.12782697 -13.70597982 6.46446152 -18.89453125 9.9375 C-21.68002981 12.74549855 -24.22253096 15.44506192 -26 19 C-20.41568788 19.20557167 -14.83998924 19.31505986 -9.25195312 19.34179688 C-7.35858718 19.36364835 -5.46531866 19.41019506 -3.57324219 19.48339844 C8.64502534 20.12694953 8.64502534 20.12694953 19.18969727 14.83178711 C21.64667599 12.40508354 23.78715222 9.82606074 25.93823242 7.13012695 C28.14742867 4.51864692 29.62070413 3.51243203 33.01220703 2.95654297 C36.6875 2.8125 36.6875 2.8125 40.13671875 3.01953125 C43.02121018 3.30957057 43.02121018 3.30957057 44.734375 1.5 C45.15203125 1.005 45.5696875 0.51 46 0 C49.34192692 0.24453124 50.60543557 0.60543557 53 3 C52.67028521 6.29714793 52.3773161 7.6226839 50 10 C47.375 10.125 47.375 10.125 45 10 C44.505 9.01 44.505 9.01 44 8 C39.30555825 7.10106435 34.61065862 6.49900252 30 8 C28.32247903 9.52639234 27.09310307 11.17272516 25.74346924 12.99346924 C22.28097569 17.56719277 18.73151289 21.26704679 13.07098389 22.78594971 C4.82781268 23.87820772 -3.46124665 23.52433995 -11.75 23.25 C-15.48715378 23.19184727 -19.22403484 23.15312652 -22.96148682 23.12005615 C-25.27441595 23.09252653 -27.58721354 23.04644976 -29.89935303 22.9800415 C-30.93513489 22.95472351 -31.97091675 22.92940552 -33.03808594 22.90332031 C-34.4070401 22.85996552 -34.4070401 22.85996552 -35.8036499 22.81573486 C-38.21000254 22.77965885 -38.21000254 22.77965885 -40 25 C-42.61580479 24.6730244 -44.64078137 24.17960932 -47 23 C-47.125 20.625 -47.125 20.625 -47 18 C-45 16 -45 16 -42.5 15.75 C-40 16 -40 16 -38 18 C-34.69227948 18.75231454 -34.69227948 18.75231454 -31 18 C-28.48033578 15.97227022 -26.55240462 13.48778139 -24.5 11 C-18.00160079 3.72428884 -18.00160079 3.72428884 -12.7578125 3.0703125 C-9.11925865 2.97518691 -5.58498436 3.3673557 -2 4 C-1.34 2.68 -0.68 1.36 0 0 Z " fill="#8D0AEB" transform="translate(165,142)"/>
<path d="M0 0 C2.5 0.25 2.5 0.25 4.5 2.25 C4.75 4.75 4.75 4.75 4.5 7.25 C3.84 7.91 3.18 8.57 2.5 9.25 C-2.05555556 8.69444444 -2.05555556 8.69444444 -3.5 7.25 C-5.84987262 7.01472227 -8.20556039 6.83613583 -10.5625 6.6875 C-12.49802734 6.56181641 -12.49802734 6.56181641 -14.47265625 6.43359375 C-15.97119141 6.34271484 -15.97119141 6.34271484 -17.5 6.25 C-17.83858284 7.04926155 -17.83858284 7.04926155 -18.18400574 7.8646698 C-21.43102628 13.75011808 -26.88294938 20.59462577 -33.41479111 22.93651962 C-38.44152008 23.95981383 -43.50430797 23.75303619 -48.60546875 23.60546875 C-50.22260094 23.60298032 -51.83974978 23.6059518 -53.4568634 23.61408997 C-57.67478652 23.62154552 -61.88864711 23.55867908 -66.10571289 23.47924805 C-70.41990966 23.40948657 -74.73414607 23.4024844 -79.04882812 23.39257812 C-83.8878618 23.38038612 -88.72591499 23.36248771 -93.5644989 23.29203796 C-94.65923775 23.27792122 -94.65923775 23.27792122 -95.77609253 23.26351929 C-97.7471588 23.23684725 -99.71815132 23.2048741 -101.68913269 23.17253113 C-104.40422312 22.92510393 -104.40422312 22.92510393 -105.5 24.25 C-107.9375 24.4375 -107.9375 24.4375 -110.5 24.25 C-112.5 22.25 -112.5 22.25 -112.75 19.75 C-112.5 17.25 -112.5 17.25 -110.5 15.25 C-105.94444444 15.80555556 -105.94444444 15.80555556 -104.5 17.25 C-102.33672553 17.41812828 -100.16792739 17.51542103 -97.99926758 17.58569336 C-97.31935257 17.60832748 -96.63943756 17.63096161 -95.93891907 17.65428162 C-89.62086914 17.85254232 -83.3007624 17.96722423 -76.98033619 18.05750179 C-72.73897264 18.1190483 -68.50203394 18.20696687 -64.26293945 18.36108398 C-44.91196758 20.0354727 -44.91196758 20.0354727 -27.34814453 14.11083984 C-24.84205502 11.74719927 -22.92782743 9.26143691 -21.02514648 6.40161133 C-19.63167535 4.33438107 -18.93731341 3.41534341 -16.58712769 2.52676392 C-13.4418904 1.99266527 -10.44531995 2.01502906 -7.265625 2.171875 C-5.89664063 2.21054688 -5.89664063 2.21054688 -4.5 2.25 C-2.5 0.25 -2.5 0.25 0 0 Z " fill="#9004DC" transform="translate(224.5,160.75)"/>
<path d="M0 0 C2.5 0.125 2.5 0.125 3.5 1.125 C6.0099665 1.18617686 8.49850847 1.18864501 11.0078125 1.16015625 C12.56771491 1.16387223 14.12761332 1.16980424 15.6875 1.17773438 C18.15045668 1.18825774 20.61053085 1.18772653 23.07324219 1.14916992 C36.72209053 0.95768931 36.72209053 0.95768931 40.93261719 3.72216797 C42.6796875 5.74609375 42.6796875 5.74609375 43.91357422 7.72436523 C48.28810708 14.40294409 48.28810708 14.40294409 55.27478027 17.74732971 C58.65840227 17.96803874 61.9735144 17.96448652 65.36328125 17.87890625 C66.59161179 17.87374496 67.81994232 17.86858368 69.085495 17.86326599 C71.67182107 17.84616769 74.25808414 17.81238047 76.84399414 17.76293945 C80.81636473 17.68742653 84.78675608 17.66049557 88.75976562 17.64257812 C91.27346429 17.61999457 93.78714036 17.59469892 96.30078125 17.56640625 C98.08975578 17.54895103 98.08975578 17.54895103 99.91487122 17.53114319 C101.01328842 17.50870041 102.11170563 17.48625763 103.2434082 17.46313477 C104.69732719 17.43812645 104.69732719 17.43812645 106.18061829 17.41261292 C108.69238606 17.34242354 108.69238606 17.34242354 110.5 15.125 C113 14.875 113 14.875 115.5 15.125 C117.5 17.125 117.5 17.125 117.75 19.625 C117.5 22.125 117.5 22.125 115.5 24.125 C110.94444444 23.56944444 110.94444444 23.56944444 109.5 22.125 C107.73157222 22.07504307 105.96113538 22.0948304 104.19262695 22.1418457 C98.48316181 22.26871708 92.77593458 22.34419264 87.06530476 22.37708759 C83.61132249 22.4007925 80.16129171 22.44895022 76.70874023 22.5534668 C52.18701733 23.26477068 52.18701733 23.26477068 46.07299805 17.95239258 C44.29763558 16.08884316 42.70252062 14.16046802 41.1131897 12.137146 C38.47301258 8.84657739 36.73360212 6.77843441 32.47924805 5.95874023 C28.1860709 5.56080887 23.97379672 5.83972447 19.6875 6.1875 C18.21835892 6.24935686 16.74893004 6.30472909 15.27929688 6.35351562 C8.90140724 6.04975693 8.90140724 6.04975693 3.5 8.125 C0.5625 8.3125 0.5625 8.3125 -2.5 8.125 C-3.16 7.465 -3.82 6.805 -4.5 6.125 C-3.77607362 0.18880368 -3.77607362 0.18880368 0 0 Z " fill="#2645AF" transform="translate(122.5,59.875)"/>
<path d="M0 0 C2.875 -0.125 2.875 -0.125 6 0 C8 2 8 2 8.3125 4.5 C8.209375 5.325 8.10625 6.15 8 7 C5 9 5 9 2.375 8.6875 C0 8 0 8 -1 7 C-10.54494875 6.05191761 -20.2069408 5.87690977 -29.79296875 6.0390625 C-30.60742966 6.02911758 -31.42189056 6.01917267 -32.2610321 6.00892639 C-36.97766902 6.15986048 -39.47449008 6.96200674 -42.90649414 10.28588867 C-45.06444478 12.66508117 -46.8737905 15.18921845 -48.703125 17.82421875 C-54.0816409 23.26145865 -62.93382242 22.21542111 -70.06884766 22.26174927 C-75.15884394 22.23944403 -80.25124237 22.19403515 -85.33709717 21.97834778 C-87.22361771 21.91311372 -89.11307449 21.94777589 -91 22 C-91.66 22.66 -92.32 23.32 -93 24 C-95.61580479 23.6730244 -97.64078137 23.17960932 -100 22 C-100.125 19.625 -100.125 19.625 -100 17 C-98 15 -98 15 -95.5 14.75 C-93 15 -93 15 -91 17 C-86.0927783 17.66607317 -81.18488098 17.79882052 -76.23730469 17.91992188 C-74.59938019 17.97265443 -72.96208797 18.05398833 -71.32714844 18.16601562 C-61.75428592 19.02054495 -61.75428592 19.02054495 -53.15814209 15.58831787 C-51.40107189 13.78637397 -49.77189139 11.92827457 -48.1640625 9.9921875 C-44.54347442 5.67230081 -41.81281876 2.72773168 -36.07421875 1.84863281 C-30.57067808 1.46042721 -25.12189955 1.76958875 -19.625 2.125 C-17.71377292 2.19538973 -15.80229327 2.25923914 -13.890625 2.31640625 C-9.25406181 2.46909191 -4.62989094 2.70955462 0 3 C0 2.01 0 1.02 0 0 Z " fill="#820ADF" transform="translate(251,94)"/>
<path d="M0 0 C2.5 0.25 2.5 0.25 4.5 2.25 C4.8125 4.75 4.8125 4.75 4.5 7.25 C1.5 9.25 1.5 9.25 -1.125 8.9375 C-3.5 8.25 -3.5 8.25 -4.5 7.25 C-9.95907864 6.73569831 -15.41621911 6.54976675 -20.89624023 6.40551758 C-22.73493228 6.34424393 -24.57295379 6.25602224 -26.40893555 6.13891602 C-38.33713574 5.23103047 -38.33713574 5.23103047 -48.63427734 10.38916016 C-50.5110988 12.24978084 -52.21233679 14.13884672 -53.85649109 16.20753479 C-56.60389474 19.65466194 -58.3038264 21.60730427 -62.77807617 22.32446289 C-66.75 22.5 -66.75 22.5 -70.515625 22.328125 C-71.99289063 22.28945312 -71.99289063 22.28945312 -73.5 22.25 C-74.16 22.91 -74.82 23.57 -75.5 24.25 C-78 24.5 -78 24.5 -80.5 24.25 C-82.5 22.25 -82.5 22.25 -82.75 19.75 C-82.5 17.25 -82.5 17.25 -80.5 15.25 C-78 15 -78 15 -75.5 15.25 C-74.84 15.91 -74.18 16.57 -73.5 17.25 C-68.90326814 18.4908356 -65.11032506 18.40820073 -60.5 17.25 C-58.77402824 15.71548526 -57.42916391 14.05209748 -55.99224854 12.24554443 C-51.91684646 7.15791819 -48.09073488 3.12913871 -41.46777344 2.03710938 C-35.88680426 1.56259097 -30.33806253 1.75857585 -24.75 2 C-21.86880581 2.05822052 -18.9879669 2.09689832 -16.10638428 2.12994385 C-14.32754162 2.15740907 -12.54886604 2.20339266 -10.77105713 2.2699585 C-8.68175197 2.33645105 -6.58970772 2.3023352 -4.5 2.25 C-2.5 0.25 -2.5 0.25 0 0 Z " fill="#414EEB" transform="translate(191.5,92.75)"/>
<path d="M0 0 C11.22 0 22.44 0 34 0 C31.46074988 5.07850025 28.75368772 8.80855707 24 12 C19.77612809 12.93800655 15.79977143 12.7674499 11.5 12.5 C10.39140625 12.46390625 9.2828125 12.4278125 8.140625 12.390625 C5.42557483 12.29700258 2.71232222 12.15352767 0 12 C0 8.04 0 4.08 0 0 Z " fill="#0F0437" transform="translate(102,83)"/>
<path d="M0 0 C2.5 0.25 2.5 0.25 4.5 2.25 C4.75 4.75 4.75 4.75 4.5 7.25 C2.5 9.25 2.5 9.25 0 9.5 C-2.5 9.25 -2.5 9.25 -4.5 7.25 C-9.08953829 6.01110623 -12.89925095 6.07784606 -17.5 7.25 C-19.02294369 8.80641573 -20.15150239 10.48341643 -21.38912964 12.27365112 C-25.03958235 17.27990488 -28.77901992 20.64959912 -34.93823242 22.00866699 C-44.29568991 22.95667168 -53.67398951 22.59788395 -63.05639648 22.21130371 C-66.94407287 22.06659553 -70.83304816 22.00383809 -74.72265625 21.93359375 C-82.31862529 21.78462059 -89.90820637 21.54659272 -97.5 21.25 C-97.5 20.59 -97.5 19.93 -97.5 19.25 C-76.38 19.25 -55.26 19.25 -33.5 19.25 C-32.84 17.93 -32.18 16.61 -31.5 15.25 C-22.37014621 3.38274541 -22.37014621 3.38274541 -15.44140625 2.31640625 C-12.77176717 2.10605562 -10.24502125 2.15966192 -7.5546875 2.2421875 C-6.54664063 2.24476562 -5.53859375 2.24734375 -4.5 2.25 C-2.5 0.25 -2.5 0.25 0 0 Z " fill="#9808F3" transform="translate(238.5,111.75)"/>
<path d="M0 0 C1.99954746 -0.04254356 4.00041636 -0.04080783 6 0 C7 1 7 1 7.125 4 C7 7 7 7 6 8 C3.5625 8.1875 3.5625 8.1875 1 8 C0.34 7.34 -0.32 6.68 -1 6 C-4.38460556 5.44555361 -6.83781446 5.21688545 -9.77246094 7.19433594 C-11.57238842 8.84708026 -13.2290759 10.5690555 -14.875 12.375 C-15.45507812 12.97828125 -16.03515625 13.5815625 -16.6328125 14.203125 C-19.67895599 17.33976046 -19.67895599 17.33976046 -22 21 C-30.91 21 -39.82 21 -49 21 C-49.33 23.64 -49.66 26.28 -50 29 C-51.29114306 32.25859914 -52.76634144 35.38317072 -56 37 C-55.54738642 35.56068883 -55.08767021 34.12361001 -54.625 32.6875 C-54.36976562 31.88699219 -54.11453125 31.08648437 -53.8515625 30.26171875 C-53 28 -53 28 -51 25 C-49.19927692 20.56407241 -48.80127696 16.95530648 -48.9375 12.1875 C-48.99108634 10.12559099 -49.02065452 8.0625018 -49 6 C-47.22985317 4.22985317 -44.65128021 4.7862501 -42.25 4.71875 C-41.0846875 4.68136719 -39.919375 4.64398438 -38.71875 4.60546875 C-36.23958333 4.53515625 -33.76041667 4.46484375 -31.28125 4.39453125 C-30.1159375 4.35714844 -28.950625 4.31976563 -27.75 4.28125 C-26.13351563 4.23581055 -26.13351563 4.23581055 -24.484375 4.18945312 C-22.05861658 4.27571437 -22.05861658 4.27571437 -21 3 C-19.43827255 2.91314397 -17.87270656 2.89297781 -16.30859375 2.90234375 C-15.36435547 2.90556641 -14.42011719 2.90878906 -13.44726562 2.91210938 C-12.45404297 2.92048828 -11.46082031 2.92886719 -10.4375 2.9375 C-9.44041016 2.94201172 -8.44332031 2.94652344 -7.41601562 2.95117188 C-4.94395151 2.96299993 -2.47200482 2.97948151 0 3 C0 2.01 0 1.02 0 0 Z M-48 6 C-48 9.96 -48 13.92 -48 18 C-33.53504766 19.82821493 -33.53504766 19.82821493 -20.1796875 15.84375 C-15.69416895 11.60887414 -15.69416895 11.60887414 -14 6 C-25.22 6 -36.44 6 -48 6 Z " fill="#255AC7" transform="translate(150,77)"/>
<path d="M0 0 C2.5 0.25 2.5 0.25 4.5 2.25 C4.75 4.75 4.75 4.75 4.5 7.25 C3.84 7.91 3.18 8.57 2.5 9.25 C-2.05555556 8.69444444 -2.05555556 8.69444444 -3.5 7.25 C-5.84987262 7.01472227 -8.20556039 6.83613583 -10.5625 6.6875 C-12.49802734 6.56181641 -12.49802734 6.56181641 -14.47265625 6.43359375 C-15.97119141 6.34271484 -15.97119141 6.34271484 -17.5 6.25 C-17.86963364 7.07904343 -17.86963364 7.07904343 -18.24673462 7.92483521 C-21.03401366 13.09603293 -24.60840903 16.99707762 -29.5 20.25 C-35.27054698 21.53874706 -40.78925804 21.28731721 -46.6640625 21.0078125 C-48.30876305 20.96664952 -49.95358247 20.93001132 -51.59848022 20.89767456 C-55.89798562 20.80113687 -60.19312011 20.64378666 -64.49023438 20.4730835 C-68.88702933 20.30940555 -73.28519552 20.2041416 -77.68359375 20.09375 C-86.29144554 19.86919634 -94.89555918 19.5802881 -103.5 19.25 C-103.5 18.92 -103.5 18.59 -103.5 18.25 C-102.21239273 18.27784073 -102.21239273 18.27784073 -100.89877319 18.3062439 C-92.75007695 18.469755 -84.60397958 18.5642855 -76.453619 18.58421898 C-72.26439112 18.59682117 -68.07877902 18.63469259 -63.890625 18.73339844 C-43.25372813 20.22251259 -43.25372813 20.22251259 -25.38955688 12.20620728 C-23.79102325 10.33588951 -22.4109376 8.42711718 -21.04052734 6.38623047 C-19.63785558 4.3297759 -18.93265336 3.41298283 -16.58520508 2.52868652 C-13.44034136 1.9942713 -10.44505752 2.01504201 -7.265625 2.171875 C-5.89664063 2.21054688 -5.89664063 2.21054688 -4.5 2.25 C-2.5 0.25 -2.5 0.25 0 0 Z " fill="#8302C3" transform="translate(224.5,160.75)"/>
<path d="M0 0 C2.5 0.25 2.5 0.25 4.5 2.25 C4.75 4.75 4.75 4.75 4.5 7.25 C3.84 7.91 3.18 8.57 2.5 9.25 C-2.05555556 8.69444444 -2.05555556 8.69444444 -3.5 7.25 C-5.34031989 7.12662826 -7.18529411 7.07208692 -9.02954102 7.04467773 C-10.21068985 7.02473251 -11.39183868 7.00478729 -12.60877991 6.98423767 C-13.8941716 6.96752518 -15.17956329 6.95081268 -16.50390625 6.93359375 C-17.81205795 6.91281265 -19.12020966 6.89203156 -20.46800232 6.87062073 C-23.95155447 6.815337 -27.4351666 6.76595569 -30.91882324 6.71777344 C-34.4713273 6.66760426 -38.0237439 6.61189433 -41.57617188 6.55664062 C-48.55070546 6.44898209 -55.52531798 6.34755433 -62.5 6.25 C-62.83 4.93 -63.16 3.61 -63.5 2.25 C-62.39792709 2.25666183 -62.39792709 2.25666183 -61.27359009 2.26345825 C-54.35764632 2.30349276 -47.44171983 2.33396288 -40.52569008 2.35362434 C-36.96987601 2.36407224 -33.4141575 2.37824959 -29.85839844 2.40087891 C-25.772777 2.42671832 -21.68725631 2.43646444 -17.6015625 2.4453125 C-16.32133209 2.45563507 -15.04110168 2.46595764 -13.72207642 2.47659302 C-11.95046646 2.47681961 -11.95046646 2.47681961 -10.14306641 2.47705078 C-9.09937897 2.481492 -8.05569153 2.48593323 -6.9803772 2.49050903 C-3.73036215 2.1753723 -3.25406451 0.32540645 0 0 Z " fill="#760FE1" transform="translate(235.5,74.75)"/>
<path d="M0 0 C4.875 0.875 4.875 0.875 6 2 C6.125 5 6.125 5 6 8 C5 9 5 9 2 9.125 C-1 9 -1 9 -2 8 C-7.99001852 7.12782697 -13.70597982 6.46446152 -18.89453125 9.9375 C-21.68002981 12.74549855 -24.22253096 15.44506192 -26 19 C-12.47 19 1.06 19 15 19 C15 19.33 15 19.66 15 20 C9.09180929 20.04945048 3.18373916 20.08574364 -2.72460938 20.10986328 C-4.73439635 20.1199187 -6.7441687 20.13356485 -8.75390625 20.15087891 C-11.64326588 20.17514724 -14.53243202 20.18648771 -17.421875 20.1953125 C-18.31992859 20.20563507 -19.21798218 20.21595764 -20.14324951 20.22659302 C-20.98381897 20.22674408 -21.82438843 20.22689514 -22.69042969 20.22705078 C-23.79629425 20.23371262 -23.79629425 20.23371262 -24.92449951 20.24050903 C-27.30519726 19.96463374 -28.93016431 19.17901432 -31 18 C-19.32279065 3.89378716 -19.32279065 3.89378716 -12.73046875 3.0703125 C-9.10145574 2.97489063 -5.57547166 3.36903441 -2 4 C-1.34 2.68 -0.68 1.36 0 0 Z " fill="#7F0BDE" transform="translate(165,142)"/>
<path d="M0 0 C2.5 0.25 2.5 0.25 4.5 2.25 C4.8125 4.75 4.8125 4.75 4.5 7.25 C1.5 9.25 1.5 9.25 -1.125 8.9375 C-3.5 8.25 -3.5 8.25 -4.5 7.25 C-7.28642215 7.1021327 -10.05119498 7.01493029 -12.83984375 6.96875 C-13.67713516 6.95034058 -14.51442657 6.93193115 -15.37709045 6.91296387 C-18.06382004 6.8540259 -20.7506143 6.80129749 -23.4375 6.75 C-26.96758663 6.68247175 -30.49746409 6.60877245 -34.02734375 6.53125 C-34.84508774 6.51767456 -35.66283173 6.50409912 -36.50535583 6.4901123 C-42.27444579 6.36277711 -42.27444579 6.36277711 -44.5 5.25 C-44.5 4.59 -44.5 3.93 -44.5 3.25 C-43.29875488 3.23018066 -42.09750977 3.21036133 -40.85986328 3.18994141 C-36.41303146 3.1140038 -31.96653195 3.02526868 -27.52001953 2.93261719 C-25.59365386 2.89427832 -23.6672154 2.85943418 -21.74072266 2.828125 C-18.97532082 2.78258055 -16.21042231 2.72456963 -13.4453125 2.6640625 C-12.5806839 2.65251129 -11.7160553 2.64096008 -10.82522583 2.62905884 C-6.25564583 2.51565992 -3.95328258 0.39532826 0 0 Z " fill="#6419E3" transform="translate(191.5,92.75)"/>
<path d="M0 0 C4.75 0.875 4.75 0.875 7 2 C7.125 4.375 7.125 4.375 7 7 C5 9 5 9 2.4375 9.1875 C0 9 0 9 -1 8 C-2.70563778 7.84259395 -4.41727244 7.74906608 -6.12890625 7.68359375 C-7.16337891 7.64169922 -8.19785156 7.59980469 -9.26367188 7.55664062 C-10.35228516 7.51732422 -11.44089844 7.47800781 -12.5625 7.4375 C-13.65498047 7.39431641 -14.74746094 7.35113281 -15.87304688 7.30664062 C-18.58189564 7.20017932 -21.29083992 7.09816484 -24 7 C-24 6.34 -24 5.68 -24 5 C-24.66 4.67 -25.32 4.34 -26 4 C-17.75 4 -9.5 4 -1 4 C-0.67 2.68 -0.34 1.36 0 0 Z " fill="#AB00ED" transform="translate(182,212)"/>
<path d="M0 0 C4.875 0.875 4.875 0.875 6 2 C6.125 5 6.125 5 6 8 C5 9 5 9 2.5625 9.1875 C0 9 0 9 -2 7 C-4.72485728 6.82482253 -7.34659362 6.76850867 -10.0703125 6.8046875 C-11.26465408 6.80893234 -11.26465408 6.80893234 -12.48312378 6.81326294 C-15.03056763 6.8244736 -17.57766211 6.84957938 -20.125 6.875 C-21.85025535 6.88502867 -23.57551619 6.89415472 -25.30078125 6.90234375 C-29.53398914 6.92441578 -33.7669353 6.95895133 -38 7 C-37.34 6.01 -36.68 5.02 -36 4 C-33.30459685 3.73313787 -30.84152536 3.65181927 -28.1484375 3.70703125 C-27.37440582 3.71127609 -26.60037415 3.71552094 -25.80288696 3.71989441 C-23.32657323 3.73671002 -20.85106842 3.77436605 -18.375 3.8125 C-16.69792841 3.82754318 -15.02084408 3.84123222 -13.34375 3.85351562 C-9.22885419 3.88662279 -5.11456431 3.93842363 -1 4 C-0.67 2.68 -0.34 1.36 0 0 Z " fill="#B400F8" transform="translate(203,191)"/>
<path d="M0 0 C0.495 0.99 0.495 0.99 1 2 C-16.325 2.495 -16.325 2.495 -34 3 C-34 3.33 -34 3.66 -34 4 C-22.78 4 -11.56 4 0 4 C0 4.33 0 4.66 0 5 C-1.46808105 5.03758423 -1.46808105 5.03758423 -2.96582031 5.07592773 C-6.60380704 5.17023983 -10.24161343 5.27040203 -13.87939453 5.37231445 C-15.45259374 5.41557338 -17.02583717 5.45725474 -18.59912109 5.49731445 C-20.86309115 5.55523662 -23.12684051 5.61886714 -25.390625 5.68359375 C-26.09181458 5.70030624 -26.79300415 5.71701874 -27.51544189 5.73423767 C-32.34828119 5.83968591 -32.34828119 5.83968591 -37 7 C-37.68486725 8.32407669 -38.34870203 9.65909241 -39 11 C-40.65002828 12.35386936 -42.3174387 13.68678142 -44 15 C-45.76323505 17.12603185 -45.76323505 17.12603185 -47 19 C-46.42362204 14.96535425 -45.38659394 12.31043676 -43 9 C-42.56888916 8.34749268 -42.13777832 7.69498535 -41.69360352 7.02270508 C-38.6561257 3.19700154 -35.95842676 0.91377244 -31.06616211 0.2565918 C-26.37863633 -0.10738293 -21.69776679 -0.05915637 -17 0 C-15.35023869 -0.00810136 -13.70049087 -0.0197873 -12.05078125 -0.03515625 C-8.03282018 -0.06484257 -4.01778114 -0.04577219 0 0 Z " fill="#8600C0" transform="translate(201,193)"/>
<path d="M0 0 C1.99954746 -0.04254356 4.00041636 -0.04080783 6 0 C7 1 7 1 7.0625 4.5625 C7.041875 5.696875 7.02125 6.83125 7 8 C4.125 8.125 4.125 8.125 1 8 C0.34 7.34 -0.32 6.68 -1 6 C-4.25473235 5.65958613 -4.25473235 5.65958613 -8.08984375 5.65625 C-8.79017227 5.6416272 -9.49050079 5.62700439 -10.21205139 5.61193848 C-12.45380961 5.56537789 -14.69547868 5.53121589 -16.9375 5.5 C-19.88444359 5.4588725 -22.83076154 5.40519046 -25.77734375 5.34375 C-27.08952881 5.32505859 -28.40171387 5.30636719 -29.75366211 5.28710938 C-33 5 -33 5 -36 3 C-24.12 3 -12.24 3 0 3 C0 2.01 0 1.02 0 0 Z " fill="#6D19EE" transform="translate(220,53)"/>
<path d="M0 0 C1.1055189 0.93590504 2.20935453 1.87379858 3.3125 2.8125 C3.92738281 3.33457031 4.54226562 3.85664062 5.17578125 4.39453125 C7 6 7 6 8.1171875 7.58203125 C11.10355823 9.83110298 14.36275169 9.36700216 17.94921875 9.29296875 C18.72183548 9.28872391 19.49445221 9.28447906 20.29048157 9.28010559 C22.75650992 9.26332183 25.22171896 9.22567147 27.6875 9.1875 C29.36001423 9.17245271 31.03254128 9.15876438 32.70507812 9.14648438 C36.80370078 9.11341946 40.90171151 9.06164028 45 9 C45 9.66 45 10.32 45 11 C28.665 11.495 28.665 11.495 12 12 C27.84 12.495 27.84 12.495 44 13 C44 13.33 44 13.66 44 14 C39.21733702 14.27477734 34.43938376 14.47275469 29.65063477 14.60424805 C28.02742418 14.65911125 26.40474564 14.73384364 24.78344727 14.82983398 C10.58027664 15.64882655 10.58027664 15.64882655 5.40869141 11.50244141 C2.62696394 8.89318763 0.2696004 6.05989928 -2 3 C-1.34 2.67 -0.68 2.34 0 2 C0 1.34 0 0.68 0 0 Z " fill="#4024B5" transform="translate(175,45)"/>
<path d="M0 0 C2.5625 0.1875 2.5625 0.1875 4.5625 2.1875 C7.39253038 2.5436636 7.39253038 2.5436636 10.70703125 2.56640625 C11.94130859 2.60056641 13.17558594 2.63472656 14.44726562 2.66992188 C15.74341797 2.69634766 17.03957031 2.72277344 18.375 2.75 C20.92326721 2.81009461 23.47145337 2.87375816 26.01953125 2.94140625 C27.15366455 2.96533447 28.28779785 2.9892627 29.45629883 3.01391602 C32.26258175 3.17073965 34.82931267 3.55406429 37.5625 4.1875 C37.5625 4.5175 37.5625 4.8475 37.5625 5.1875 C26.6725 5.1875 15.7825 5.1875 4.5625 5.1875 C4.2325 6.1775 3.9025 7.1675 3.5625 8.1875 C0.6875 8.3125 0.6875 8.3125 -2.4375 8.1875 C-3.0975 7.5275 -3.7575 6.8675 -4.4375 6.1875 C-3.71780303 0.28598485 -3.71780303 0.28598485 0 0 Z " fill="#1597F2" transform="translate(122.4375,59.8125)"/>
<path d="M0 0 C2.5 0.25 2.5 0.25 4.5 2.25 C7.22000357 2.49556371 9.84574257 2.62356486 12.5703125 2.6640625 C13.76465408 2.69311172 13.76465408 2.69311172 14.98312378 2.7227478 C17.53030634 2.78260474 20.07753395 2.82895279 22.625 2.875 C24.3502803 2.91317421 26.07554143 2.95222561 27.80078125 2.9921875 C32.03369876 3.08831109 36.26670549 3.17231908 40.5 3.25 C40.5 3.58 40.5 3.91 40.5 4.25 C39.65703369 4.27505615 38.81406738 4.3001123 37.94555664 4.32592773 C34.82758326 4.42088155 31.70978497 4.52012448 28.59204102 4.62231445 C27.24085853 4.66571223 25.88961947 4.7073837 24.53833008 4.74731445 C22.59963299 4.80489952 20.66113724 4.86914298 18.72265625 4.93359375 C17.55484619 4.97025146 16.38703613 5.00690918 15.18383789 5.04467773 C12.58220205 4.95076188 12.58220205 4.95076188 11.5 6.25 C9.7984375 6.4665625 9.7984375 6.4665625 8.0625 6.6875 C4.45941003 6.89847551 4.45941003 6.89847551 2.5 9.25 C-0.11580479 8.9230244 -2.14078137 8.42960932 -4.5 7.25 C-4.625 4.875 -4.625 4.875 -4.5 2.25 C-2.5 0.25 -2.5 0.25 0 0 Z " fill="#6912DB" transform="translate(155.5,108.75)"/>
<path d="M0 0 C1.99954746 -0.04254356 4.00041636 -0.04080783 6 0 C7 1 7 1 7.125 4 C7 7 7 7 6 8 C3.5625 8.1875 3.5625 8.1875 1 8 C0.34 7.34 -0.32 6.68 -1 6 C-5.33643601 5.68462284 -7.32653229 5.55102153 -11 8 C-11.33 7.01 -11.66 6.02 -12 5 C-15.3 5 -18.6 5 -22 5 C-21.67 4.34 -21.34 3.68 -21 3 C-14.07 3 -7.14 3 0 3 C0 2.01 0 1.02 0 0 Z " fill="#3767F7" transform="translate(150,77)"/>
<path d="M0 0 C2.875 -0.125 2.875 -0.125 6 0 C8 2 8 2 8.3125 4.5 C8.209375 5.325 8.10625 6.15 8 7 C5 9 5 9 2.3125 8.625 C1.549375 8.41875 0.78625 8.2125 0 8 C-0.495 6.515 -0.495 6.515 -1 5 C-13.21 5 -25.42 5 -38 5 C-38 4.67 -38 4.34 -38 4 C-25.79 3.67 -13.58 3.34 -1 3 C-0.67 2.01 -0.34 1.02 0 0 Z " fill="#9E03E9" transform="translate(251,94)"/>
<path d="M0 0 C2.5 0.25 2.5 0.25 4.5 2.25 C4.75 4.75 4.75 4.75 4.5 7.25 C2.5 9.25 2.5 9.25 -0.125 9.375 C-0.90875 9.33375 -1.6925 9.2925 -2.5 9.25 C-2.83 8.59 -3.16 7.93 -3.5 7.25 C-10.76 6.92 -18.02 6.59 -25.5 6.25 C-25.5 5.92 -25.5 5.59 -25.5 5.25 C-19.065 4.755 -19.065 4.755 -12.5 4.25 C-12.5 3.92 -12.5 3.59 -12.5 3.25 C-11.22125 3.12625 -9.9425 3.0025 -8.625 2.875 C-4.90835024 2.51532422 -3.46949408 0.34694941 0 0 Z " fill="#4F31E1" transform="translate(201.5,33.75)"/>
<path d="M0 0 C0.33 0.66 0.66 1.32 1 2 C-3.95 2 -8.9 2 -14 2 C-13.67 2.99 -13.34 3.98 -13 5 C-15.28356246 7.34138543 -17.57813374 9.67166982 -19.875 12 C-20.85146484 13.00160156 -20.85146484 13.00160156 -21.84765625 14.0234375 C-22.47285156 14.65507812 -23.09804687 15.28671875 -23.7421875 15.9375 C-24.3182373 16.52402344 -24.89428711 17.11054688 -25.48779297 17.71484375 C-27 19 -27 19 -29 19 C-28.52477989 12.34691842 -23.46695109 8.11643459 -18.85546875 3.78515625 C-13.19428623 -0.84672036 -7.04833172 -0.59467252 0 0 Z " fill="#8704CF" transform="translate(234,114)"/>
<path d="M0 0 C2.375 -0.125 2.375 -0.125 5 0 C7 2 7 2 7.25 4.5 C7 7 7 7 5 9 C0.44444444 8.44444444 0.44444444 8.44444444 -1 7 C-3.52596259 6.76346477 -6.03107207 6.57826308 -8.5625 6.4375 C-9.27341797 6.39431641 -9.98433594 6.35113281 -10.71679688 6.30664062 C-12.47761912 6.20028223 -14.2387832 6.09961154 -16 6 C-15.67 5.34 -15.34 4.68 -15 4 C-11.83984375 3.5859375 -11.83984375 3.5859375 -7.9375 3.375 C-6.64714844 3.30023438 -5.35679687 3.22546875 -4.02734375 3.1484375 C-3.02832031 3.09945312 -2.02929688 3.05046875 -1 3 C-0.67 2.01 -0.34 1.02 0 0 Z " fill="#B000F2" transform="translate(222,161)"/>
<path d="M0 0 C3.25696479 0.41755959 4.63443291 0.63443291 7 3 C6.67028521 6.29714793 6.3773161 7.6226839 4 10 C1.375 10.125 1.375 10.125 -1 10 C-1.33 8.68 -1.66 7.36 -2 6 C-6.62 6 -11.24 6 -16 6 C-16 5.67 -16 5.34 -16 5 C-11.71 5 -7.42 5 -3 5 C-2.34 3.68 -1.68 2.36 -1 1 C-0.67 0.67 -0.34 0.34 0 0 Z " fill="#9F00DF" transform="translate(211,142)"/>
<path d="M0 0 C0 0.66 0 1.32 0 2 C0.66 2.33 1.32 2.66 2 3 C1.25556641 3.63615234 1.25556641 3.63615234 0.49609375 4.28515625 C-0.18324219 4.87167969 -0.86257812 5.45820312 -1.5625 6.0625 C-2.30628906 6.69285156 -3.05007812 7.32320313 -3.81640625 7.97265625 C-6.01718273 9.89185764 -6.01718273 9.89185764 -7.52734375 12.05859375 C-9.26517981 14.34958718 -10.44261819 15.63805543 -13 17 C-18.33695704 17.57934532 -23.71717663 16.75468905 -29 16 C-29 15.67 -29 15.34 -29 15 C-28.22398438 15.09023437 -27.44796875 15.18046875 -26.6484375 15.2734375 C-20.65829716 15.45928911 -16.59317579 14.88055362 -12.08984375 10.81640625 C-9.01135721 7.76934085 -6.1114306 4.56874274 -3.3059082 1.26928711 C-2 0 -2 0 0 0 Z " fill="#4A2DD4" transform="translate(147,96)"/>
<path d="M0 0 C0 0.33 0 0.66 0 1 C-0.7734375 0.979375 -1.546875 0.95875 -2.34375 0.9375 C-3.3853125 0.958125 -4.426875 0.97875 -5.5 1 C-6.5209375 1 -7.541875 1 -8.59375 1 C-13.39088887 2.11278704 -13.39088887 2.11278704 -20 10 C-1.685 10.495 -1.685 10.495 17 11 C17 11.33 17 11.66 17 12 C3.47 12 -10.06 12 -24 12 C-18.36225175 0.7245035 -12.32965309 -1.24681885 0 0 Z " fill="#290257" transform="translate(163,149)"/>
<path d="M0 0 C4.70588235 0.70588235 4.70588235 0.70588235 6 2 C6.125 5 6.125 5 6 8 C5 9 5 9 1.9375 9.0625 C0.968125 9.041875 -0.00125 9.02125 -1 9 C-1.33 8.01 -1.66 7.02 -2 6 C-6.62 6 -11.24 6 -16 6 C-16 5.67 -16 5.34 -16 5 C-11.38 5 -6.76 5 -2 5 C-1.67 3.68 -1.34 2.36 -1 1 C-0.67 0.67 -0.34 0.34 0 0 Z " fill="#8A0BEB" transform="translate(165,142)"/>
<path d="M0 0 C11.88 0 23.76 0 36 0 C36.495 0.99 36.495 0.99 37 2 C25.12 2.33 13.24 2.66 1 3 C0.67 2.01 0.34 1.02 0 0 Z " fill="#231670" transform="translate(87,131)"/>
<path d="M0 0 C1.4540625 0.0309375 1.4540625 0.0309375 2.9375 0.0625 C3.2675 1.0525 3.5975 2.0425 3.9375 3.0625 C8.2275 3.3925 12.5175 3.7225 16.9375 4.0625 C16.9375 4.3925 16.9375 4.7225 16.9375 5.0625 C12.6475 5.0625 8.3575 5.0625 3.9375 5.0625 C3.6075 6.0525 3.2775 7.0425 2.9375 8.0625 C0.93795254 8.10504356 -1.06291636 8.10330783 -3.0625 8.0625 C-4.0625 7.0625 -4.0625 7.0625 -4.1875 4.0625 C-4.02164894 0.08207447 -4.02164894 0.08207447 0 0 Z " fill="#6C1BF9" transform="translate(108.0625,142.9375)"/>
<path d="M0 0 C2.4375 0.0625 2.4375 0.0625 5 1 C6.8125 3.5625 6.8125 3.5625 8 6 C6.18887927 8.28773145 5.39279457 8.95209822 2.4375 9.3125 C0 9 0 9 -2 7 C-2.25 4.5 -2.25 4.5 -2 2 C-1.34 1.34 -0.68 0.68 0 0 Z " fill="#7F0EE9" transform="translate(114,176)"/>
<path d="M0 0 C4.875 0.875 4.875 0.875 6 2 C6.125 5 6.125 5 6 8 C5 9 5 9 2.625 9.25 C0 9 0 9 -1.8125 7.625 C-3 6 -3 6 -3 4 C-2.34 4 -1.68 4 -1 4 C-0.67 2.68 -0.34 1.36 0 0 Z " fill="#AC00EE" transform="translate(203,191)"/>
<path d="M0 0 C0.89589844 0.00322266 1.79179688 0.00644531 2.71484375 0.00976562 C4.12056641 0.02233398 4.12056641 0.02233398 5.5546875 0.03515625 C6.49957031 0.03966797 7.44445312 0.04417969 8.41796875 0.04882812 C10.75527137 0.06063268 13.09244811 0.07709866 15.4296875 0.09765625 C15.4296875 0.42765625 15.4296875 0.75765625 15.4296875 1.09765625 C8.41162893 2.19852818 1.52402983 2.19498717 -5.5703125 2.09765625 C-5.6528125 3.27328125 -5.7353125 4.44890625 -5.8203125 5.66015625 C-6.38739924 10.27903667 -7.98056973 13.25228063 -10.5703125 17.09765625 C-11.2303125 17.42765625 -11.8903125 17.75765625 -12.5703125 18.09765625 C-12.11769892 16.65834508 -11.65798271 15.22126626 -11.1953125 13.78515625 C-10.94007812 12.98464844 -10.68484375 12.18414062 -10.421875 11.359375 C-9.5703125 9.09765625 -9.5703125 9.09765625 -7.5703125 6.09765625 C-7.4053125 5.23140625 -7.2403125 4.36515625 -7.0703125 3.47265625 C-6.9053125 2.68890625 -6.7403125 1.90515625 -6.5703125 1.09765625 C-4.16971433 -0.10264283 -2.67670601 -0.01694118 0 0 Z " fill="#2281F0" transform="translate(106.5703125,95.90234375)"/>
<path d="M0 0 C1.66611905 -0.042721 3.33382885 -0.04063832 5 0 C6 1 6 1 6.25 3.4375 C6.1675 4.283125 6.085 5.12875 6 6 C3 8 3 8 0.3125 7.625 C-0.450625 7.41875 -1.21375 7.2125 -2 7 C-1.125 2.25 -1.125 2.25 0 0 Z " fill="#7A10EA" transform="translate(190,94)"/>
<path d="M0 0 C1.99954746 -0.04254356 4.00041636 -0.04080783 6 0 C7 1 7 1 7.125 4 C7 7 7 7 6 8 C4.33382885 8.04063832 2.66611905 8.042721 1 8 C0.34 6.68 -0.32 5.36 -1 4 C-0.34 3.34 0.32 2.68 1 2 C0.67 1.34 0.34 0.68 0 0 Z " fill="#4A48F4" transform="translate(150,77)"/>
<path d="M0 0 C-3.64116773 3.33773709 -7.28607242 3.97864902 -12 5 C-12 4.34 -12 3.68 -12 3 C-16.455 3.495 -16.455 3.495 -21 4 C-14.65939616 -0.22706923 -7.41567962 -0.2354184 0 0 Z " fill="#0399D3" transform="translate(139,31)"/>
<path d="M0 0 C0.78375 0.04125 1.5675 0.0825 2.375 0.125 C1.570625 0.74375 0.76625 1.3625 -0.0625 2 C-2.66374519 3.86664041 -2.66374519 3.86664041 -3.625 6.125 C-10.885 6.125 -18.145 6.125 -25.625 6.125 C-25.625 5.795 -25.625 5.465 -25.625 5.125 C-19.19 4.63 -19.19 4.63 -12.625 4.125 C-12.625 3.795 -12.625 3.465 -12.625 3.125 C-11.34625 3.00125 -10.0675 2.8775 -8.75 2.75 C-5.00475673 2.3875571 -3.52964598 0.16807838 0 0 Z " fill="#3B45D5" transform="translate(201.625,33.875)"/>
<path d="M0 0 C0.70189453 0.01353516 1.40378906 0.02707031 2.12695312 0.04101562 C3.85579829 0.07629818 5.58424765 0.13010417 7.3125 0.1875 C7.3125 1.1775 7.3125 2.1675 7.3125 3.1875 C6.32507813 3.24808594 5.33765625 3.30867187 4.3203125 3.37109375 C3.03898438 3.45488281 1.75765625 3.53867188 0.4375 3.625 C-0.83867187 3.70621094 -2.11484375 3.78742188 -3.4296875 3.87109375 C-6.57050152 3.97956027 -6.57050152 3.97956027 -8.6875 5.1875 C-9.3475 4.5275 -10.0075 3.8675 -10.6875 3.1875 C-7.97885416 -0.76650025 -4.33266512 -0.15777212 0 0 Z " fill="#720BD0" transform="translate(155.6875,145.8125)"/>
<path d="M0 0 C0.66 0.33 1.32 0.66 2 1 C0.92492371 2.29854721 -0.16043736 3.58858361 -1.25 4.875 C-1.85328125 5.59429687 -2.4565625 6.31359375 -3.078125 7.0546875 C-4.97087634 8.97052118 -6.53657727 9.96449045 -9 11 C-9 11.66 -9 12.32 -9 13 C-9.66 12.67 -10.32 12.34 -11 12 C-3.70159453 3.55353075 -3.70159453 3.55353075 0 0 Z " fill="#0393CD" transform="translate(95,47)"/>
<path d="M0 0 C0.99 0 1.98 0 3 0 C2.82374165 2.37948772 2.30280227 3.70225849 0.59765625 5.37890625 C-0.90649092 6.62115486 -2.45129851 7.81376056 -4 9 C-4.33 7.68 -4.66 6.36 -5 5 C-4.34 5 -3.68 5 -3 5 C-2.5359375 4.0409375 -2.5359375 4.0409375 -2.0625 3.0625 C-1 1 -1 1 0 0 Z " fill="#6713DB" transform="translate(138,132)"/>
<path d="M0 0 C0.66 0.33 1.32 0.66 2 1 C-2.33333333 5.33333333 -6.66666667 9.66666667 -11 14 C-10.91703243 11.17910277 -10.46590016 9.47907472 -8.48046875 7.4375 C-7.26638613 6.41511463 -6.03620166 5.4114779 -4.7890625 4.4296875 C-3.06363408 3.05085169 -1.53193202 1.58832216 0 0 Z " fill="#220046" transform="translate(166,199)"/>
<path d="M0 0 C2.6875 -0.375 2.6875 -0.375 6 0 C8.06398076 1.823983 9.39041053 3.72763839 11 6 C9.1875 6.6875 9.1875 6.6875 7 7 C5.25 5.6875 5.25 5.6875 4 4 C4 3.34 4 2.68 4 2 C2.68 1.34 1.36 0.68 0 0 Z " fill="#394DDB" transform="translate(155,63)"/>
<path d="M0 0 C1.3484585 3.06467841 0.91740262 4.2434449 -0.1875 7.5 C-1.84704181 10.70463246 -3.29492345 12.66803746 -6 15 C-4.36041242 9.76727367 -2.61047965 4.84803364 0 0 Z " fill="#1A60B9" transform="translate(100,99)"/>
<path d="M0 0 C0.78375 0.04125 1.5675 0.0825 2.375 0.125 C1.75625 0.16625 1.1375 0.2075 0.5 0.25 C-0.20125 0.53875 -0.9025 0.8275 -1.625 1.125 C-2.9295656 4.12115946 -2.9295656 4.12115946 -3.625 7.125 C-4.285 6.465 -4.945 5.805 -5.625 5.125 C-8.28037372 4.55979997 -10.91644713 4.38711802 -13.625 4.125 C-13.625 3.795 -13.625 3.465 -13.625 3.125 C-12.99851563 3.07601562 -12.37203125 3.02703125 -11.7265625 2.9765625 C-10.90929687 2.90179688 -10.09203125 2.82703125 -9.25 2.75 C-8.43789062 2.68039063 -7.62578125 2.61078125 -6.7890625 2.5390625 C-3.68534905 1.94521119 -3.30412333 0.15733921 0 0 Z " fill="#670FD0" transform="translate(191.625,92.875)"/>
<path d="M0 0 C-0.39803561 2.88575819 -0.79009069 3.82189513 -3.0625 5.75 C-3.701875 6.1625 -4.34125 6.575 -5 7 C-5.6875 5.1875 -5.6875 5.1875 -6 3 C-4.04862098 0.26806937 -3.44686768 0 0 0 Z " fill="#5341FB" transform="translate(204,35)"/>
<path d="M0 0 C2.01822917 0.06510417 4.03645833 0.13020833 6.0546875 0.1953125 C6.3846875 0.8553125 6.7146875 1.5153125 7.0546875 2.1953125 C4.05937211 3.19375096 2.88213018 3.20264011 -0.1328125 2.7578125 C-1.3909375 2.5721875 -2.6490625 2.3865625 -3.9453125 2.1953125 C-1.9453125 0.1953125 -1.9453125 0.1953125 0 0 Z " fill="#6125F5" transform="translate(118.9453125,128.8046875)"/>
<path d="M0 0 C1.875 0.3125 1.875 0.3125 4 1 C4.66 1.99 5.32 2.98 6 4 C5.01 5.485 5.01 5.485 4 7 C1.49962266 4.82575883 0.56371414 3.26954202 0 0 Z " fill="#5027D7" transform="translate(168,73)"/>
<path d="M0 0 C2.97 0 5.94 0 9 0 C6.37801226 2.15377564 4.35595828 3.40072174 1 4 C1.33 3.01 1.66 2.02 2 1 C1.34 0.67 0.68 0.34 0 0 Z " fill="#0578B0" transform="translate(130,31)"/>
<path d="M0 0 C1.4540625 0.0309375 1.4540625 0.0309375 2.9375 0.0625 C2.15375 0.660625 1.37 1.25875 0.5625 1.875 C-2.20824323 3.97335249 -2.20824323 3.97335249 -4.0625 7.0625 C-4.10504356 5.06295254 -4.10330783 3.06208364 -4.0625 1.0625 C-3.0625 0.0625 -3.0625 0.0625 0 0 Z " fill="#541DD3" transform="translate(108.0625,142.9375)"/>
<path d="M0 0 C0.6875 1.8125 0.6875 1.8125 1 4 C-0.4375 5.75 -0.4375 5.75 -2 7 C-2.99 6.34 -3.98 5.68 -5 5 C-3.35 3.35 -1.7 1.7 0 0 Z " fill="#9200CF" transform="translate(200,170)"/>
<path d="M0 0 C1.32 0.33 2.64 0.66 4 1 C4 1.66 4 2.32 4 3 C4.66 3.66 5.32 4.32 6 5 C4.35 4.67 2.7 4.34 1 4 C0.67 2.68 0.34 1.36 0 0 Z " fill="#4737DB" transform="translate(181,53)"/>
</svg>
